<?xml version="1.0" standalone="no"?><svg style="width: 297mm; height: 210mm" viewBox="0 0 297 210" fill="none" stroke="black" id="frame" stroke-width="0.4" width="297mm" height="210mm" xmlns="http://www.w3.org/2000/svg"><path d="M 90, 52.59804248870305 L 91.1, 48.66764545409652 L 92.2, 50.62721967711747 L 93.3, 47.67061710303431 L 94.4, 54.49509143934005 L 95.5, 53.76101493923017 L 96.6, 45.1205348957145 L 97.7, 49.903593063332046 L 98.8, 51.47657632862138 L 99.9, 51.661036014943626 L 101, 47.16021776133222 L 102.1, 52.58744716704531 L 103.2, 54.78080272785872 L 104.3, 45.269613264889834 L 105.4, 45.75973033806303 L 106.5, 46.82489395067675 L 107.6, 47.19486236506953 L 108.7, 47.26500987942913 L 109.8, 52.04674959230394 L 110.9, 54.5717287074243 L 112, 45.056381224434915 L 113.1, 50.20148515705985 L 114.2, 54.54385995970663 L 115.3, 47.028017043375414 L 116.4, 47.13636159830176 L 117.5, 48.74805211991725 L 118.6, 47.98722028685436 L 119.7, 50.10639190676305 L 120.80000000000001, 51.753888130596344 L 121.9, 48.85328769657139 L 123, 52.56150007307564 L 124.1, 53.734292984878245 L 125.2, 52.744665146513064 L 126.30000000000001, 48.25374126393668 L 127.4, 53.9729142198276 L 128.5, 54.09130573367963 L 129.6, 50.65197706237714 L 130.7, 51.26393318205698 L 131.8, 53.07528257441597 L 132.9, 54.5891237269596 L 134, 49.26941871626056 L 135.1, 48.44787597620112 L 136.2, 54.261481762924575 L 137.3, 51.54371261632622 L 138.4, 47.149055003456084 L 139.5, 50.292553901740476 L 140.6, 46.98230743337942 L 141.7, 49.027152061235896 L 142.8, 49.8702883720096 L 143.9, 47.49597549380175 L 145, 48.66679429976894 L 146.1, 51.537904739737954 L 147.2, 48.10137271836898 L 148.3, 45.31812667737671 L 149.4, 46.65275573652535 L 150.5, 52.84143924779292 L 151.60000000000002, 46.10127210526291 L 152.7, 50.71886777894545 L 153.8, 53.62194299782206 L 154.9, 45.73707818885732 L 156, 46.249790190777226 L 157.10000000000002, 45.51709890261225 L 158.2, 54.39160347087113 L 159.3, 45.86968660258448 L 160.4, 52.335414887018366 L 161.5, 47.33594894347152 L 162.60000000000002, 50.436275005442155 L 163.7, 54.54435110197969 L 164.8, 46.97639942098791 L 165.9, 53.71688127604241 L 167, 52.8407382971702 L 168.10000000000002, 45.2121210087119 L 169.2, 49.43645954118959 L 170.3, 45.9422874441236 L 171.4, 49.535403251539776 L 172.5, 46.39713764106788 L 173.60000000000002, 47.51433134021106 L 174.7, 54.093723298072284 L 175.8, 54.26789045433232 L 176.9, 51.23992443113586 L 178, 49.278161525558254 L 179.10000000000002, 54.13024902439915 L 180.2, 47.24251270229987 L 181.3, 49.53829526890495 L 182.4, 46.26460552128605 L 183.5, 54.516966343977714 L 184.60000000000002, 45.690197943637656 L 185.7, 48.14225435213704 L 186.8, 46.31332158956521 L 187.9, 48.30710172613782 L 189, 48.695983886415135 L 190.10000000000002, 45.727946757275596 L 191.2, 52.425975800125386 L 192.3, 46.93641424107747 L 193.4, 46.34927034293052 L 194.5, 53.858327866498925 L 195.60000000000002, 49.99277353286575 L 196.7, 50.550186634191824 L 197.8, 51.39059066804838 L 198.9, 49.37082767471923"></path><path d="M 90, 60.611186027669156 L 91.1, 60.664880275881124 L 92.2, 55.44782638443816 L 93.3, 62.41251468714618 L 94.4, 59.30577993376781 L 95.5, 63.04432630609821 L 96.6, 59.129257201945705 L 97.7, 63.45880031666225 L 98.8, 57.91461944531524 L 99.9, 57.81278133341409 L 101, 55.923659800534054 L 102.1, 59.13974523524282 L 103.2, 63.28843593673977 L 104.3, 58.5153961178184 L 105.4, 60.08058547975509 L 106.5, 62.626378536835865 L 107.6, 57.8442597384202 L 108.7, 56.42906904137439 L 109.8, 61.54613256490467 L 110.9, 61.57935142553862 L 112, 58.24279308278179 L 113.1, 57.8504824633362 L 114.2, 57.425682544108874 L 115.3, 59.62672471991431 L 116.4, 60.484533310049336 L 117.5, 64.26145553688087 L 118.6, 62.998285294277196 L 119.7, 60.56355237973936 L 120.80000000000001, 62.682819367079716 L 121.9, 59.58210706701085 L 123, 55.34920930754142 L 124.1, 56.72996997757116 L 125.2, 59.147276878158394 L 126.30000000000001, 60.6517338754264 L 127.4, 63.298339844517955 L 128.5, 61.96434259460409 L 129.6, 57.916791438571366 L 130.7, 58.80272388430376 L 131.8, 59.89946842191263 L 132.9, 64.3589735041277 L 134, 59.182012080955786 L 135.1, 62.11428403903597 L 136.2, 60.44767141352586 L 137.3, 58.93652439092671 L 138.4, 59.56028461446061 L 139.5, 62.58301973403036 L 140.6, 59.837002754173476 L 141.7, 60.065753459945725 L 142.8, 61.4391493800653 L 143.9, 56.37107372199443 L 145, 58.25379610020988 L 146.1, 60.86405515690894 L 147.2, 55.527455805690835 L 148.3, 57.13928699426802 L 149.4, 63.56106758200588 L 150.5, 55.16850232965511 L 151.60000000000002, 62.71585226122193 L 152.7, 60.829102993204515 L 153.8, 59.148371219436726 L 154.9, 58.8276028630388 L 156, 60.95002889655298 L 157.10000000000002, 55.8997750272741 L 158.2, 63.20866346433961 L 159.3, 59.52235460270251 L 160.4, 58.34559202155694 L 161.5, 59.97955799102307 L 162.60000000000002, 55.98721742536575 L 163.7, 59.15076255778567 L 164.8, 60.46142339717164 L 165.9, 64.51353788480944 L 167, 55.94672202969592 L 168.10000000000002, 56.97201490331721 L 169.2, 60.82661151905232 L 170.3, 64.22763824561324 L 171.4, 58.236281871385 L 172.5, 58.07368755295725 L 173.60000000000002, 55.26827335247497 L 174.7, 63.75732660381061 L 175.8, 62.654893398903056 L 176.9, 59.19183015804548 L 178, 63.84293079465696 L 179.10000000000002, 58.50203514064244 L 180.2, 57.097296714106875 L 181.3, 62.54184246122414 L 182.4, 59.953446388233786 L 183.5, 59.06892299630421 L 184.60000000000002, 61.51563406025889 L 185.7, 60.43949365626077 L 186.8, 57.22548007900488 L 187.9, 57.3883390420555 L 189, 59.0070962903572 L 190.10000000000002, 55.033330916202004 L 191.2, 59.876568317384596 L 192.3, 64.28490877251255 L 193.4, 57.62518882696172 L 194.5, 55.13983011132568 L 195.60000000000002, 62.83525705403538 L 196.7, 62.04127073335491 L 197.8, 64.90295648688985 L 198.9, 62.54662990629362"></path><path d="M 90, 71.28022909194236 L 91.1, 70.71184873597507 L 92.2, 72.70690441194617 L 93.3, 72.28414058738485 L 94.4, 66.33080005560322 L 95.5, 74.22851324179874 L 96.6, 66.94960594106223 L 97.7, 73.37691068727916 L 98.8, 67.73350000328699 L 99.9, 65.31071185956493 L 101, 72.01385498093764 L 102.1, 68.81726503344655 L 103.2, 68.17256689029107 L 104.3, 65.70405959982985 L 105.4, 73.95649910065264 L 106.5, 70.37507534035832 L 107.6, 70.49156188976289 L 108.7, 74.4920539866416 L 109.8, 68.3147144313703 L 110.9, 65.8555388440973 L 112, 68.52254390682153 L 113.1, 70.29203176505213 L 114.2, 69.51149940479348 L 115.3, 73.45695734104537 L 116.4, 67.75434732384848 L 117.5, 68.4261560436399 L 118.6, 66.82765960619497 L 119.7, 66.47762536920553 L 120.80000000000001, 74.99116897699217 L 121.9, 69.90799188611749 L 123, 72.78178453510203 L 124.1, 67.55634546223011 L 125.2, 65.0339841831089 L 126.30000000000001, 70.82920312900777 L 127.4, 67.58350610676769 L 128.5, 68.97886514639922 L 129.6, 68.59813451734328 L 130.7, 66.71941041870029 L 131.8, 67.90268659542843 L 132.9, 72.47438192425165 L 134, 70.02809286118207 L 135.1, 74.19172763922059 L 136.2, 67.55077362003522 L 137.3, 70.77430248278526 L 138.4, 74.02463913057574 L 139.5, 66.55550002971559 L 140.6, 71.7721152309729 L 141.7, 65.58177709476598 L 142.8, 74.91333007926897 L 143.9, 73.8480949410815 L 145, 67.51549005450576 L 146.1, 65.71186303992566 L 147.2, 74.23007726767801 L 148.3, 72.5461530691353 L 149.4, 68.4254789348751 L 150.5, 74.95646715279587 L 151.60000000000002, 67.3711419099409 L 152.7, 68.7767195698751 L 153.8, 67.50139951647758 L 154.9, 67.12090253762922 L 156, 70.23410320287434 L 157.10000000000002, 70.59862613691917 L 158.2, 74.93061065788628 L 159.3, 71.12874269511754 L 160.4, 68.12650203661212 L 161.5, 68.48529577219982 L 162.60000000000002, 66.16738557726316 L 163.7, 72.93866634437317 L 164.8, 71.43514633212126 L 165.9, 73.22818994597257 L 167, 65.10672807579552 L 168.10000000000002, 73.49900961003709 L 169.2, 73.89122247786523 L 170.3, 72.59665727675815 L 171.4, 73.63321781243039 L 172.5, 66.72770976944075 L 173.60000000000002, 71.20214700726842 L 174.7, 74.19898748495592 L 175.8, 72.64221191467769 L 176.9, 70.51698923122999 L 178, 71.04149103188922 L 179.10000000000002, 72.47013568935687 L 180.2, 74.32744026284838 L 181.3, 70.32146930702065 L 182.4, 72.78268098895967 L 183.5, 73.61074447715905 L 184.60000000000002, 74.59067583190992 L 185.7, 66.81688785478866 L 186.8, 74.95411634560537 L 187.9, 68.98175001120701 L 189, 66.73174381180009 L 190.10000000000002, 74.5520710955728 L 191.2, 72.11324214984506 L 192.3, 73.86146068662904 L 193.4, 66.76644325181061 L 194.5, 70.50071716320252 L 195.60000000000002, 74.77078199497674 L 196.7, 68.44512939416923 L 197.8, 70.57013034833831 L 198.9, 73.28748464660893"></path><path d="M 90, 81.29675626784953 L 91.1, 83.97403001877805 L 92.2, 77.8276538843819 L 93.3, 78.55684280361906 L 94.4, 82.14005231907126 L 95.5, 80.92213153860581 L 96.6, 79.62845802298479 L 97.7, 80.07004976274214 L 98.8, 83.1357455260902 L 99.9, 77.73156881279581 L 101, 75.51687240496204 L 102.1, 75.8362770070872 L 103.2, 81.55640840566633 L 104.3, 81.63417339363 L 105.4, 79.41255331025751 L 106.5, 81.00302696251381 L 107.6, 76.9775605194684 L 108.7, 81.45784139667121 L 109.8, 81.88560247465168 L 110.9, 80.16026735309518 L 112, 75.94419240857107 L 113.1, 76.851863860351 L 114.2, 83.52030992589899 L 115.3, 81.4812970164887 L 116.4, 78.73407602280706 L 117.5, 77.76952505059762 L 118.6, 80.06690979005464 L 119.7, 80.48205137264031 L 120.80000000000001, 75.11907100563847 L 121.9, 83.53589296423269 L 123, 79.20784473400745 L 124.1, 75.64316511052735 L 125.2, 78.63899946181081 L 126.30000000000001, 81.16397142437378 L 127.4, 83.70501756754355 L 128.5, 81.27908229857661 L 129.6, 77.93596982907876 L 130.7, 80.95046997092442 L 131.8, 84.80201482884632 L 132.9, 83.07368278574982 L 134, 82.37173318918136 L 135.1, 79.89326715466875 L 136.2, 77.18450784617674 L 137.3, 84.87950086707238 L 138.4, 84.58645820724462 L 139.5, 81.71887874643292 L 140.6, 83.97959947678717 L 141.7, 84.35625076395372 L 142.8, 83.88286113829419 L 143.9, 80.21852970128379 L 145, 76.6733598701361 L 146.1, 78.14966678576303 L 147.2, 76.1111450186258 L 148.3, 80.02229928970856 L 149.4, 82.7161479002601 L 150.5, 79.63455677023961 L 151.60000000000002, 81.76199197810189 L 152.7, 75.24067640193753 L 153.8, 83.21410417631597 L 154.9, 75.80564260385131 L 156, 84.332637787874 L 157.10000000000002, 82.63798236908343 L 158.2, 82.14831113865327 L 159.3, 79.8453378677008 L 160.4, 79.28277254087915 L 161.5, 75.30667781720558 L 162.60000000000002, 77.29706048902521 L 163.7, 75.6657481183451 L 164.8, 79.7013711928626 L 165.9, 83.56755495154475 L 167, 77.81867980906243 L 168.10000000000002, 82.16512680104123 L 169.2, 78.3615279193878 L 170.3, 80.6949782373139 L 171.4, 75.75415849586813 L 172.5, 79.10390138605234 L 173.60000000000002, 80.14075517657696 L 174.7, 77.17673540049623 L 175.8, 80.5633187295318 L 176.9, 84.95852232094819 L 178, 75.46390056504492 L 179.10000000000002, 81.83768034024109 L 180.2, 82.68501520219377 L 181.3, 76.89497947620576 L 182.4, 79.6875405310857 L 183.5, 76.29688262853233 L 184.60000000000002, 80.79069376010231 L 185.7, 82.28722095542756 L 186.8, 84.715895653869 L 187.9, 79.65605735770801 L 189, 83.85138034910229 L 190.10000000000002, 79.22420501690922 L 191.2, 81.45710468326162 L 192.3, 76.65560722273207 L 193.4, 78.88885498021004 L 194.5, 81.00696802162727 L 195.60000000000002, 77.10865259103213 L 196.7, 82.79185533588563 L 197.8, 76.9527840607224 L 198.9, 75.56270360843341"></path><path d="M 90, 88.3364939685763 L 91.1, 90.88031768819324 L 92.2, 89.91537809369979 L 93.3, 92.10902214099397 L 94.4, 94.54577446089726 L 95.5, 90.65014600768922 L 96.6, 94.4254994402699 L 97.7, 85.48290967836112 L 98.8, 87.4265789979665 L 99.9, 90.9995770456734 L 101, 87.37256050048688 L 102.1, 94.94731187935623 L 103.2, 86.03468179610434 L 104.3, 87.15896129542006 L 105.4, 88.90632390950488 L 106.5, 88.72666597336686 L 107.6, 89.73368406289575 L 108.7, 94.96752739068296 L 109.8, 85.96997976209269 L 110.9, 92.632393837588 L 112, 85.2475047100446 L 113.1, 89.69323396675597 L 114.2, 87.58717536870091 L 115.3, 85.65585613149588 L 116.4, 91.86151266141364 L 117.5, 87.04685687950041 L 118.6, 86.20860099704205 L 119.7, 90.5211424828789 L 120.80000000000001, 89.34512615188609 L 121.9, 88.63448619810737 L 123, 90.46110391627556 L 124.1, 89.56697225560598 L 125.2, 89.54853296269395 L 126.30000000000001, 88.50974559749238 L 127.4, 90.88228225728551 L 128.5, 94.42481517894771 L 129.6, 87.28553295072297 L 130.7, 88.42857360803256 L 131.8, 87.6428413385625 L 132.9, 92.75136947695896 L 134, 88.35837602577135 L 135.1, 87.98444747877876 L 136.2, 85.83954334162165 L 137.3, 88.874328136182 L 138.4, 89.97181892394363 L 139.5, 94.49640274152542 L 140.6, 89.52420473087676 L 141.7, 91.63880825080881 L 142.8, 93.42308759769031 L 143.9, 85.99689006712215 L 145, 88.03225517227133 L 146.1, 92.49922752438562 L 147.2, 86.2339878073507 L 148.3, 93.12228202892521 L 149.4, 87.93330907773537 L 150.5, 85.34763574491899 L 151.60000000000002, 89.32462692245016 L 152.7, 86.20954275042972 L 153.8, 92.03072786378459 L 154.9, 92.0331859593357 L 156, 94.24394846061337 L 157.10000000000002, 90.99246025108556 L 158.2, 92.05237388658625 L 159.3, 93.80972623913775 L 160.4, 89.28923130018852 L 161.5, 93.32280159073947 L 162.60000000000002, 93.23683261946701 L 163.7, 90.33368825920245 L 164.8, 85.36854267012527 L 165.9, 93.10666561199042 L 167, 90.30606031424972 L 168.10000000000002, 86.85458421633919 L 169.2, 93.51079464040482 L 170.3, 94.79956865422417 L 171.4, 90.67522764221654 L 172.5, 89.61468935003846 L 173.60000000000002, 94.44958686932213 L 174.7, 91.87570810361666 L 175.8, 87.48734950960785 L 176.9, 92.36947774942254 L 178, 89.47163343417263 L 179.10000000000002, 89.14011239985473 L 180.2, 88.75402212113934 L 181.3, 89.90899562833575 L 182.4, 85.02335786703586 L 183.5, 94.24623966315906 L 184.60000000000002, 86.5764021865503 L 185.7, 85.99276304151695 L 186.8, 93.99873495195033 L 187.9, 86.17290735155645 L 189, 89.23314571362761 L 190.10000000000002, 93.82554292767904 L 191.2, 91.15171670940512 L 192.3, 87.1547079079679 L 193.4, 89.59342002859185 L 194.5, 94.84398365133535 L 195.60000000000002, 86.0590171804789 L 196.7, 88.91934156392685 L 197.8, 94.25145626167102 L 198.9, 88.74484539002759"></path><path d="M 90, 101.0355281832245 L 91.1, 104.7018384944419 L 92.2, 98.09268712953028 L 93.3, 95.9854507436942 L 94.4, 99.27625894529658 L 95.5, 96.21758460910469 L 96.6, 102.98342943260991 L 97.7, 100.18929004673598 L 98.8, 95.9238743772553 L 99.9, 95.67010164160051 L 101, 103.00014257500882 L 102.1, 95.37230491530437 L 103.2, 98.0721759791654 L 104.3, 103.18540811612863 L 105.4, 99.81607198710927 L 106.5, 102.59383916915252 L 107.6, 102.05342531252035 L 108.7, 97.05935239723402 L 109.8, 96.05648755935405 L 110.9, 102.6637291914466 L 112, 101.75855398219045 L 113.1, 98.6679649349926 L 114.2, 98.38631629906277 L 115.3, 98.62510681120332 L 116.4, 96.34542465124872 L 117.5, 97.70367860740602 L 118.6, 95.72588443656589 L 119.7, 95.02553939703515 L 120.80000000000001, 102.57405519545406 L 121.9, 95.67343711752292 L 123, 99.72915410989177 L 124.1, 104.23194885352439 L 125.2, 104.84106302374067 L 126.30000000000001, 97.99726009322266 L 127.4, 98.43607425653283 L 128.5, 97.9096221918961 L 129.6, 98.6148476597422 L 130.7, 103.59601497733873 L 131.8, 99.87210273739697 L 132.9, 97.2887778275853 L 134, 101.43527269396822 L 135.1, 99.46910619723357 L 136.2, 103.334245682539 L 137.3, 102.68764972749344 L 138.4, 102.40113973673459 L 139.5, 99.73861932748432 L 140.6, 99.49116468417718 L 141.7, 101.28361225158059 L 142.8, 95.73610067268277 L 143.9, 101.56466007269097 L 145, 99.23129320126756 L 146.1, 95.39461851012769 L 147.2, 102.83329248494312 L 148.3, 103.80155801861582 L 149.4, 102.86352872915182 L 150.5, 97.67841339057274 L 151.60000000000002, 97.99683332396597 L 152.7, 100.40177106866653 L 153.8, 97.63208389227094 L 154.9, 104.58780050384527 L 156, 99.0672850606654 L 157.10000000000002, 101.05338573480336 L 158.2, 96.70441865844289 L 159.3, 102.89684295721744 L 160.4, 99.92780685423124 L 161.5, 102.15588569691309 L 162.60000000000002, 96.22532367618413 L 163.7, 101.28512144118667 L 164.8, 98.1159615512276 L 165.9, 103.33920717317127 L 167, 102.37608194406519 L 168.10000000000002, 101.83252096218814 L 169.2, 100.16908884052398 L 170.3, 96.8245983116386 L 171.4, 99.03321981407544 L 172.5, 104.486169816108 L 173.60000000000002, 97.63021945898194 L 174.7, 96.5405082694582 L 175.8, 97.05706119468833 L 176.9, 104.50612783536923 L 178, 97.98536539030852 L 179.10000000000002, 96.85728788302683 L 180.2, 101.69064521828915 L 181.3, 95.63246488469477 L 182.4, 95.44822215927957 L 183.5, 96.16705655962393 L 184.60000000000002, 104.32820797067328 L 185.7, 95.70904254813424 L 186.8, 100.40047168741015 L 187.9, 102.55879402220222 L 189, 104.7306013118314 L 190.10000000000002, 95.60186147587417 L 191.2, 95.54348230258176 L 192.3, 101.5232372287482 L 193.4, 99.72993612283142 L 194.5, 95.36560058485847 L 195.60000000000002, 101.66861057320344 L 196.7, 101.50756597554022 L 197.8, 99.29184675200187 L 198.9, 97.07705974510802"></path><path d="M 90, 105.00637769582829 L 91.1, 106.40071868812683 L 92.2, 109.97757673263027 L 93.3, 114.82659340017163 L 94.4, 110.7397818567091 L 95.5, 111.4080667499006 L 96.6, 108.17602634387464 L 97.7, 107.33461141524245 L 98.8, 112.26771593146671 L 99.9, 114.78341817967208 L 101, 109.9290895461871 L 102.1, 108.93541097616205 L 103.2, 112.93931722709428 L 104.3, 106.19823217303451 L 105.4, 106.72394990844744 L 106.5, 106.2343549719626 L 107.6, 111.40736818346366 L 108.7, 107.75302648491996 L 109.8, 112.01267480897081 L 110.9, 105.33079624067312 L 112, 111.2099862101511 L 113.1, 112.71796941820485 L 114.2, 109.88260984418042 L 115.3, 108.04200887634465 L 116.4, 112.34666585976879 L 117.5, 114.70074176897778 L 118.6, 106.61496400754316 L 119.7, 105.27801751980512 L 120.80000000000001, 108.29464673956267 L 121.9, 114.43137407406033 L 123, 105.09020566825993 L 124.1, 109.63270664206536 L 125.2, 109.44868564592878 L 126.30000000000001, 107.07961559227658 L 127.4, 107.1828246110079 L 128.5, 113.30627918320388 L 129.6, 112.16719150593671 L 130.7, 108.6748647686734 L 131.8, 111.50528430973768 L 132.9, 113.74126672831859 L 134, 107.59608030263243 L 135.1, 106.26907348545944 L 136.2, 109.36352491363965 L 137.3, 113.4459447868741 L 138.4, 113.46888065418901 L 139.5, 112.14311361362765 L 140.6, 111.16324901607894 L 141.7, 106.37965440665829 L 142.8, 111.75583601038807 L 143.9, 106.03596687224601 L 145, 112.29602575355582 L 146.1, 108.12427997545439 L 147.2, 106.43984556115228 L 148.3, 109.36325073227363 L 149.4, 108.08247804597079 L 150.5, 111.52673482930444 L 151.60000000000002, 112.16076374104264 L 152.7, 105.73246002097903 L 153.8, 113.46669435581813 L 154.9, 106.71399354858184 L 156, 106.91806316303976 L 157.10000000000002, 105.24837732204432 L 158.2, 113.12711954189629 L 159.3, 105.65343379873164 L 160.4, 106.29943132314352 L 161.5, 106.26707553776612 L 162.60000000000002, 114.65192079652378 L 163.7, 107.65012025778418 L 164.8, 106.36884450827931 L 165.9, 110.30923843390988 L 167, 111.57119274175986 L 168.10000000000002, 107.40329980789761 L 169.2, 108.72572660416498 L 170.3, 109.86625671383605 L 171.4, 105.20878553278949 L 172.5, 106.60986900250657 L 173.60000000000002, 109.60997819891432 L 174.7, 111.36707067521453 L 175.8, 113.7136554726664 L 176.9, 112.71219015184607 L 178, 110.8733153345234 L 179.10000000000002, 107.84730911204761 L 180.2, 105.75805902382314 L 181.3, 112.40478038843833 L 182.4, 107.83724069544982 L 183.5, 106.17029428392888 L 184.60000000000002, 110.0774145126523 L 185.7, 113.19293260648682 L 186.8, 113.05846452784223 L 187.9, 110.22769451146658 L 189, 113.49605560384134 L 190.10000000000002, 108.73301029175823 L 191.2, 108.00557136489209 L 192.3, 113.92046451659884 L 193.4, 114.86709833258463 L 194.5, 111.22620582609116 L 195.60000000000002, 109.518539905436 L 196.7, 109.01434183097778 L 197.8, 106.61762714307234 L 198.9, 109.74763154977644"></path><path d="M 90, 121.58867836035525 L 91.1, 117.0642542832215 L 92.2, 120.8300375940348 L 93.3, 115.74867486854751 L 94.4, 118.77930641145895 L 95.5, 115.31483411679855 L 96.6, 122.94950246879587 L 97.7, 119.38055038437726 L 98.8, 123.32554340439978 L 99.9, 123.20575952604547 L 101, 123.75890016643305 L 102.1, 117.79690504022801 L 103.2, 124.34481859308315 L 104.3, 120.18061161045465 L 105.4, 116.24740362079986 L 106.5, 123.65775108422567 L 107.6, 123.22121143416064 L 108.7, 123.99887800309781 L 109.8, 120.95638990424489 L 110.9, 117.95242071104059 L 112, 117.46108770311369 L 113.1, 118.5256075855637 L 114.2, 122.5111103063708 L 115.3, 121.26971006422995 L 116.4, 122.96659231254985 L 117.5, 116.84520721362094 L 118.6, 115.28518676648036 L 119.7, 124.96086597558131 L 120.80000000000001, 121.49291276966522 L 121.9, 115.3487038601536 L 123, 123.52549791418144 L 124.1, 119.65691804877876 L 125.2, 119.70289468758341 L 126.30000000000001, 123.7381243714453 L 127.4, 117.66999959891429 L 128.5, 121.37815475495955 L 129.6, 121.27448320418468 L 130.7, 119.36985731110207 L 131.8, 120.07576942445611 L 132.9, 124.69598054995201 L 134, 124.43503379925039 L 135.1, 120.4586076737518 L 136.2, 118.25618982274462 L 137.3, 123.73787641612297 L 138.4, 118.4924864765472 L 139.5, 123.0978751189769 L 140.6, 116.14519596010102 L 141.7, 120.08383274080322 L 142.8, 124.24026489356538 L 143.9, 122.26511478476812 L 145, 122.69288539949173 L 146.1, 118.21310281711935 L 147.2, 119.98652935027762 L 148.3, 122.41734266337411 L 149.4, 119.53073024738829 L 150.5, 119.04084205605109 L 151.60000000000002, 118.78274679155619 L 152.7, 121.65058612861917 L 153.8, 122.75108337466398 L 154.9, 115.73328733344871 L 156, 120.1688885689175 L 157.10000000000002, 124.30317401986177 L 158.2, 116.78421258851519 L 159.3, 123.12670707775436 L 160.4, 120.00897169113368 L 161.5, 122.6712274557611 L 162.60000000000002, 119.99136447906294 L 163.7, 124.98167991754173 L 164.8, 120.06283998490844 L 165.9, 124.2213130007082 L 167, 117.01385974814507 L 168.10000000000002, 117.9192996020241 L 169.2, 116.90756559299948 L 170.3, 123.66763115014592 L 171.4, 116.20992183597058 L 172.5, 123.80082368939203 L 173.60000000000002, 117.85522460887563 L 174.7, 116.15761279970351 L 175.8, 117.45194435060303 L 176.9, 119.16331052760671 L 178, 115.57530403034187 L 179.10000000000002, 117.31575250563112 L 180.2, 116.61069154660467 L 181.3, 119.20495748501386 L 182.4, 122.7768707281856 L 183.5, 115.45910358323229 L 184.60000000000002, 117.13457584314388 L 185.7, 117.14673995905247 L 186.8, 123.70782137003444 L 187.9, 121.48378610645509 L 189, 115.86785554789655 L 190.10000000000002, 117.43113279282841 L 191.2, 119.95116233824547 L 192.3, 123.0502414710471 L 193.4, 120.6575059892278 L 194.5, 122.03511714982686 L 195.60000000000002, 119.75673437112866 L 196.7, 118.82323503466864 L 197.8, 117.56522178593214 L 198.9, 124.70190525164406"></path><path d="M 90, 126.24483585270234 L 91.1, 129.19668912868872 L 92.2, 129.5929598807341 L 93.3, 132.31313705498192 L 94.4, 129.1846680639276 L 95.5, 133.75261545268648 L 96.6, 125.96520662213797 L 97.7, 125.64888000386973 L 98.8, 128.64526033369947 L 99.9, 125.74911594291896 L 101, 125.31037330518252 L 102.1, 132.2905159001915 L 103.2, 128.54499816860653 L 104.3, 126.24099492939212 L 105.4, 134.56958532439768 L 106.5, 134.81999397390058 L 107.6, 133.55307579123254 L 108.7, 129.0180730817416 L 109.8, 132.34472751672024 L 110.9, 125.59606075184328 L 112, 131.51030540501472 L 113.1, 132.76625633304153 L 114.2, 128.19335937457936 L 115.3, 134.0699553499161 L 116.4, 128.268756866052 L 117.5, 131.03188753152077 L 118.6, 130.04935026169971 L 119.7, 129.60571765890478 L 120.80000000000001, 133.36845159609067 L 121.9, 132.13247299243986 L 123, 128.93153190587915 L 124.1, 128.37806224785234 L 125.2, 125.21461725123567 L 126.30000000000001, 125.71269035239534 L 127.4, 128.45857620203367 L 128.5, 129.20991659146034 L 129.6, 128.26387166936507 L 130.7, 130.76058626192633 L 131.8, 134.64673519242712 L 132.9, 132.32404708916414 L 134, 130.63845634475314 L 135.1, 133.19064378812692 L 136.2, 130.97268819831606 L 137.3, 134.13384199238703 L 138.4, 133.81625413983508 L 139.5, 126.18600368410955 L 140.6, 132.14506149341935 L 141.7, 128.70627403229156 L 142.8, 131.308224201507 L 143.9, 128.53170633281854 L 145, 129.9803447723343 L 146.1, 127.9160737986481 L 147.2, 127.1162962906799 L 148.3, 134.27740573982646 L 149.4, 125.14872312432824 L 150.5, 131.9067239765792 L 151.60000000000002, 129.31206226332858 L 152.7, 128.39769363366014 L 153.8, 133.96348714920774 L 154.9, 128.69842529266572 L 156, 133.5100340851373 L 157.10000000000002, 133.23014736250747 L 158.2, 132.39873647745668 L 159.3, 129.79252099986013 L 160.4, 127.77797937341452 L 161.5, 133.2428050048749 L 162.60000000000002, 131.2447237971343 L 163.7, 128.14651966051815 L 164.8, 127.46566295564772 L 165.9, 133.23433160857167 L 167, 131.975519657595 L 168.10000000000002, 134.99612331506705 L 169.2, 133.58381033027166 L 170.3, 129.38929080948915 L 171.4, 130.96296072028645 L 172.5, 127.42821454941952 L 173.60000000000002, 125.2895927418232 L 174.7, 125.67690133947806 L 175.8, 134.03620720003642 L 176.9, 130.7434082032981 L 178, 126.79241418763819 L 179.10000000000002, 127.92718410443682 L 180.2, 129.21040296536182 L 181.3, 129.54400062550417 L 182.4, 130.99376201652777 L 183.5, 127.0308208458663 L 184.60000000000002, 131.11771583583152 L 185.7, 126.3305497160951 L 186.8, 134.36532735926224 L 187.9, 132.48275518475162 L 189, 127.03133106162569 L 190.10000000000002, 125.27543306240706 L 191.2, 133.61976623619435 L 192.3, 132.4423217779124 L 193.4, 132.25905895285752 L 194.5, 128.82688045474396 L 195.60000000000002, 130.4244136811291 L 196.7, 129.63186264029514 L 197.8, 133.24267625884215 L 198.9, 132.86571025915111"></path><path d="M 90, 142.77354002063478 L 91.1, 140.6884527208024 L 92.2, 144.6275281916902 L 93.3, 136.04647159484364 L 94.4, 137.77726650186287 L 95.5, 144.4163870821745 L 96.6, 140.53312778485315 L 97.7, 140.91369152090365 L 98.8, 138.64470243422426 L 99.9, 144.16611194707596 L 101, 137.82781124064417 L 102.1, 136.8692612640721 L 103.2, 143.3938670166288 L 104.3, 143.10441970897477 L 105.4, 139.22080278378465 L 106.5, 141.35475873978686 L 107.6, 141.67078971901694 L 108.7, 136.76824569626905 L 109.8, 139.12033319452786 L 110.9, 140.9991908075752 L 112, 139.45691585528127 L 113.1, 144.12569284535147 L 114.2, 143.69815111246382 L 115.3, 138.74743461579723 L 116.4, 140.35650014885618 L 117.5, 139.70034599297222 L 118.6, 143.10964584422987 L 119.7, 141.83204412502982 L 120.80000000000001, 141.6896438602567 L 121.9, 135.71874856849172 L 123, 139.4947147368208 L 124.1, 142.82839059895565 L 125.2, 144.74857092014247 L 126.30000000000001, 140.42550086985005 L 127.4, 140.63678264632745 L 128.5, 141.82818412823326 L 129.6, 138.33493709525442 L 130.7, 135.08363962058993 L 131.8, 138.97707462286974 L 132.9, 136.44115924752344 L 134, 136.62952423017228 L 135.1, 143.98076295945344 L 136.2, 135.5579257001071 L 137.3, 135.8955025663356 L 138.4, 136.05877399352818 L 139.5, 135.68353414435023 L 140.6, 137.86950588176714 L 141.7, 135.01943349722293 L 142.8, 139.5541286467468 L 143.9, 141.01057052635832 L 145, 142.99799919198222 L 146.1, 141.00095987343252 L 147.2, 136.1788296690627 L 148.3, 135.45648813141895 L 149.4, 140.94633102439025 L 150.5, 143.79904508679152 L 151.60000000000002, 139.7542881965065 L 152.7, 141.08903646494474 L 153.8, 139.75724458688808 L 154.9, 141.68292045632444 L 156, 143.0723619468213 L 157.10000000000002, 135.7637858380945 L 158.2, 137.48497247637366 L 159.3, 137.4944591516383 L 160.4, 135.71928262610902 L 161.5, 137.14137315683564 L 162.60000000000002, 143.88410568327737 L 163.7, 140.09522199632954 L 164.8, 137.91903734158703 L 165.9, 142.64651775421726 L 167, 143.29339981155783 L 168.10000000000002, 138.537168502467 L 169.2, 143.40999364932298 L 170.3, 140.51265478146092 L 171.4, 144.67359304536916 L 172.5, 136.3179635993014 L 173.60000000000002, 143.04859638285092 L 174.7, 142.8594040877324 L 175.8, 142.54845857679575 L 176.9, 142.2298717503971 L 178, 144.90544319267048 L 179.10000000000002, 142.38944292124114 L 180.2, 143.16958904340157 L 181.3, 135.84118842981783 L 182.4, 137.47016191423643 L 183.5, 139.41906929002587 L 184.60000000000002, 142.59079933226826 L 185.7, 142.16971635868998 L 186.8, 139.91624355314212 L 187.9, 138.15264940218827 L 189, 142.83659696645026 L 190.10000000000002, 144.5352125178406 L 191.2, 140.77648878115613 L 192.3, 143.7706518181997 L 193.4, 136.37102126990703 L 194.5, 138.59584808316916 L 195.60000000000002, 141.53323411977226 L 196.7, 135.98057508375044 L 197.8, 136.7768502227908 L 198.9, 142.5296974188019"></path></svg>